<svg version="1.1" id="Layer_1" xmlns="http://www.w3.org/2000/svg" xmlns:xlink="http://www.w3.org/1999/xlink" x="0px" y="0px"
	 width="100%" viewBox="0 0 448 448" enable-background="new 0 0 448 448" xml:space="preserve">
<path fill="#000000" opacity="1.000000" stroke="none" 
	d="
M179.915497,247.905533 
	C168.264160,244.478806 157.216431,239.832016 146.617508,233.735306 
	C139.385117,229.575104 132.522995,225.094299 125.972488,219.982315 
	C120.562546,215.760406 117.971039,209.942032 115.964348,203.751694 
	C114.684486,199.803528 113.687431,195.754105 112.747292,191.707382 
	C110.683907,182.825836 108.575119,173.948593 106.840141,165.000717 
	C106.308647,162.259583 105.269592,161.278198 102.641716,161.375916 
	C99.980240,161.474899 97.310860,161.345520 94.644913,161.342987 
	C88.108330,161.336792 82.332138,159.348724 77.030487,155.417099 
	C59.163765,142.167465 47.863831,124.472595 43.429649,102.972435 
	C41.320564,92.746040 40.048290,81.280113 47.401539,72.246918 
	C53.441757,64.826736 59.720417,57.413334 67.740486,51.762638 
	C84.382454,40.037216 103.283401,34.769299 122.876640,30.372234 
	C139.493759,26.643064 155.731445,29.600672 171.821930,31.291302 
	C180.803116,32.234955 190.876663,35.772488 197.848862,43.486530 
	C199.120804,44.893818 199.779053,46.155586 198.408081,47.780300 
	C198.041290,47.841686 197.556549,48.059361 197.422638,47.925644 
	C190.851730,41.364944 181.776047,39.575459 173.876907,35.556065 
	C172.859772,35.038498 171.700699,34.422756 170.625366,34.454861 
	C159.626083,34.783287 148.799164,31.764923 137.843781,32.456001 
	C122.711182,33.410587 108.181030,37.183903 94.008286,42.681320 
	C83.719666,46.672134 73.780807,51.142193 65.720367,58.779125 
	C59.136391,65.017166 51.786667,70.869049 48.392429,79.641632 
	C44.645473,89.325844 45.787975,99.075584 49.037525,108.815224 
	C53.139229,121.108940 58.951328,132.529007 67.929977,141.757278 
	C73.256599,147.231979 78.592445,153.297791 86.389282,155.865784 
	C89.739487,156.969193 93.092636,158.065125 96.627831,157.616791 
	C101.456535,157.004395 105.416893,160.552551 110.184677,159.853577 
	C112.405548,173.921783 115.925751,187.371567 119.469322,200.812119 
	C121.372070,208.029099 124.801750,214.085190 131.122284,218.707718 
	C146.651627,230.065186 163.405243,238.539536 181.806290,244.424759 
	C205.163818,251.895233 228.606766,250.239975 252.306335,247.926834 
	C260.377686,247.139053 268.545563,247.584335 276.554626,245.700287 
	C287.108337,243.217621 297.003052,239.417328 306.825409,234.626495 
	C325.140900,225.693176 334.269379,210.036896 342.293182,192.607285 
	C350.585571,174.594223 353.882935,155.762863 354.645691,136.242249 
	C354.684692,135.244583 354.682434,134.239105 354.606262,133.244400 
	C354.445496,131.145264 353.343506,129.016296 354.850372,126.985558 
	C357.043549,124.029854 358.509430,127.678993 360.419708,127.627632 
	C362.427551,127.573647 364.332611,127.487541 366.272430,126.730164 
	C370.586426,125.045830 374.926300,123.345680 379.386932,122.136261 
	C388.535156,119.655853 391.565948,112.230843 393.505615,104.398506 
	C396.035461,94.183113 394.638885,83.809219 391.574768,73.984840 
	C387.645721,61.387321 382.038452,49.689373 370.837219,41.350376 
	C356.193634,30.448639 340.197784,26.926493 322.471313,30.560984 
	C313.707031,32.357944 304.716064,32.285225 295.923126,34.183765 
	C288.786774,35.724628 281.712494,37.293449 274.942413,39.995052 
	C272.797363,40.851025 270.748566,41.903629 268.532196,42.671890 
	C263.425049,44.442196 261.612610,48.929161 260.640045,53.707451 
	C238.043655,52.364590 216.445801,56.104771 195.159103,62.400417 
	C189.934448,63.945637 184.281021,64.105728 179.741180,67.687218 
	C178.876816,68.369118 177.735962,68.193985 177.169632,67.142471 
	C176.547363,65.987076 176.805511,64.753677 177.917221,64.051781 
	C179.599960,62.989380 181.307541,61.726799 183.183090,61.246780 
	C199.885742,56.971966 216.389877,51.819584 233.763184,50.576050 
	C240.567184,50.089043 247.346191,49.535778 254.169144,49.641495 
	C255.505142,49.662201 257.127411,49.762943 257.591064,48.213505 
	C259.979248,40.232395 267.398468,38.669785 273.631592,36.137489 
	C284.243988,31.826071 295.468262,29.610344 306.914948,28.641420 
	C317.973053,27.705395 328.831848,25.110172 340.078705,25.567484 
	C354.379272,26.148968 366.472687,31.668215 376.778961,41.087170 
	C389.741516,52.933754 395.943665,68.017578 397.524841,85.469841 
	C398.408356,95.221390 399.095459,104.643524 394.605316,113.729401 
	C391.793091,119.419952 388.319153,124.226692 381.565125,125.614799 
	C374.460907,127.074867 368.253662,131.592438 360.644073,131.554855 
	C357.723083,131.540421 358.268677,134.387405 358.375885,136.235519 
	C359.137115,149.358826 356.774872,162.243195 353.210663,174.584442 
	C348.743134,190.053574 342.629883,204.789078 332.636536,218.215759 
	C326.015930,227.111008 318.145752,232.574585 309.161163,237.870117 
	C294.007782,246.801559 277.565216,249.909760 260.309265,251.560516 
	C242.868195,253.228973 225.468338,253.269333 208.024185,253.338181 
	C198.623322,253.375290 189.560272,251.610657 180.395294,248.111420 
	C179.991928,247.986115 179.915497,247.905533 179.915497,247.905533 
z"/>
<path fill="#000000" opacity="1.000000" stroke="none" 
	d="
M310.684479,254.599060 
	C308.204193,252.400146 305.668762,250.259079 303.271210,247.973389 
	C302.332764,247.078735 301.352417,245.832367 302.606415,244.501419 
	C303.774109,243.262039 305.123230,243.740509 306.119476,244.772858 
	C308.243317,246.973785 310.512878,248.602676 313.712128,249.121704 
	C315.778503,249.456924 315.141022,251.803360 315.409180,253.373016 
	C316.585541,260.257874 316.601440,260.300537 323.254272,258.509369 
	C329.624207,256.794373 335.484985,253.614700 342.435028,253.533890 
	C354.129456,253.397873 353.070587,255.354156 356.107239,265.355133 
	C360.628998,280.247437 362.135101,295.826416 364.039948,311.238678 
	C365.283936,321.303925 367.385223,331.295654 367.347260,341.505249 
	C367.339386,343.627808 367.473297,345.287384 370.336304,345.684143 
	C382.931335,347.429626 386.042236,350.808563 387.303406,363.527985 
	C388.604279,376.647827 387.965851,377.354248 374.800049,377.345184 
	C372.467133,377.343567 370.129364,377.424835 367.802277,377.304749 
	C362.863770,377.049957 358.393768,376.219818 358.359711,369.694092 
	C358.353333,368.474182 357.565491,367.143677 356.837860,366.067291 
	C355.522186,364.121033 353.421143,364.072357 351.428833,364.592743 
	C349.038696,365.217072 348.960571,367.364807 349.562531,369.074005 
	C351.306396,374.025269 348.936432,374.877258 344.609497,375.602814 
	C339.770905,376.414154 335.002991,376.237701 330.198730,376.327911 
	C326.640167,376.394714 324.508362,374.899506 324.655731,370.967834 
	C324.885559,364.835693 324.136139,358.668518 325.629547,352.579498 
	C326.063873,350.808746 326.669495,349.096710 328.356934,348.739929 
	C334.744324,347.389282 335.021484,342.262634 335.544861,337.408997 
	C337.077148,323.198883 338.142242,308.964233 337.681732,294.642242 
	C337.402466,285.955200 336.952179,285.356110 328.293457,285.336395 
	C322.052124,285.322174 322.052124,285.322144 319.060791,283.744202 
	C320.733246,280.565155 323.712189,281.918091 326.048859,281.758301 
	C328.922791,281.561798 330.847046,281.554596 332.327118,277.890991 
	C334.288971,273.034882 334.626007,267.879211 336.495728,263.097595 
	C336.963226,261.902008 336.726776,260.376160 338.368195,259.893829 
	C341.243713,263.097565 341.152100,263.910919 335.937042,281.023926 
	C338.066772,281.757904 339.673645,283.258240 340.648926,285.783447 
	C343.668488,280.926392 347.393616,276.906219 346.132477,270.968750 
	C345.879974,269.780090 346.806183,269.105713 347.895691,269.023468 
	C349.290558,268.918243 349.969727,269.790009 350.215912,271.107086 
	C350.787964,274.167328 350.408417,277.356232 349.033386,279.870758 
	C347.079468,283.443817 345.712708,287.427094 342.714691,290.423553 
	C340.062866,293.073975 341.820435,296.360046 341.344879,299.778931 
	C346.622253,298.903839 348.967438,294.424194 352.790741,291.900238 
	C355.156555,294.444580 354.523895,296.550262 352.322327,298.367371 
	C350.405701,299.949249 348.503357,301.822754 346.256287,302.672668 
	C341.617645,304.427216 340.933807,307.650726 341.268127,312.015625 
	C341.607086,316.440979 341.642059,320.932892 340.205475,325.992554 
	C346.832153,324.522583 353.362000,324.327179 358.716278,321.261627 
	C362.945068,318.840485 360.291504,314.237122 359.645508,310.239624 
	C354.509186,310.858093 350.514099,315.707184 344.840576,313.448517 
	C345.686310,310.117340 348.367981,310.228729 350.365753,309.467651 
	C358.907074,306.213593 358.961151,305.122803 358.069122,296.146088 
	C357.095825,286.351685 354.182770,277.026459 352.584106,267.406952 
	C351.039215,258.111145 347.177155,255.691162 338.038086,257.920105 
	C337.554230,258.038086 337.077301,258.184235 336.594543,258.306976 
	C326.315247,260.920166 326.316833,260.919861 326.318451,271.198456 
	C326.318787,273.364624 326.347076,275.532257 326.275818,277.696381 
	C326.231995,279.026276 326.168732,280.617126 324.277283,280.475098 
	C322.750549,280.360504 322.727417,278.932983 322.709198,277.770172 
	C322.657074,274.438110 322.722809,271.103455 322.627045,267.773132 
	C322.580994,266.173126 323.130890,264.416382 321.533112,262.787964 
	C317.950287,263.435364 316.337250,265.178436 316.228333,269.340088 
	C315.366974,302.261169 313.471710,335.159515 314.300903,368.114868 
	C314.329926,369.268097 314.220154,370.450867 313.978149,371.577545 
	C313.736053,372.704681 312.809113,373.188660 311.709229,373.013733 
	C310.596832,372.836731 310.015442,372.128326 310.088593,370.916779 
	C311.434692,348.617188 309.428223,326.237976 311.010284,304.003479 
	C312.050201,289.388397 312.630829,274.824829 312.656708,260.204285 
	C312.659393,258.673828 312.464050,257.219177 311.316772,255.417938 
	C310.990417,254.939209 310.684479,254.599045 310.684479,254.599060 
M381.005829,356.519592 
	C377.702820,349.272980 371.663605,348.511841 364.586151,350.028473 
	C363.670685,344.691254 360.467682,344.881256 356.418976,345.936157 
	C353.088318,346.803955 349.557251,346.949921 346.101257,347.264832 
	C344.815430,347.382019 343.196655,347.343201 343.156006,345.449341 
	C343.124054,343.960876 344.385529,343.694366 345.599976,343.523163 
	C350.021881,342.899750 354.441681,342.261169 358.859955,341.612701 
	C360.825562,341.324219 363.421570,341.230042 363.439667,338.739288 
	C363.468292,334.801086 362.852875,330.839233 361.650055,327.031677 
	C361.221924,325.676544 360.120117,325.092346 358.916656,325.686951 
	C354.528931,327.854736 349.623901,327.997437 345.015808,329.314209 
	C339.799652,330.804718 338.444641,333.655548 339.750946,338.491882 
	C352.855530,334.725159 354.179199,334.723938 355.943604,338.705902 
	C350.230682,340.049988 344.560425,341.384033 338.361511,342.842468 
	C339.318390,347.667694 337.541290,350.806549 332.131714,351.410706 
	C330.706177,351.569916 329.789276,352.971008 329.360107,354.613892 
	C328.078003,359.521637 328.270874,364.494171 328.380432,369.475098 
	C328.424408,371.474945 329.421265,372.548859 331.448364,372.614136 
	C336.075012,372.763123 340.700592,372.905609 345.493195,370.590149 
	C344.376648,367.291809 344.135742,363.978149 347.464569,361.751312 
	C352.794434,358.185913 361.320465,361.205933 361.979797,367.483582 
	C362.549866,372.910828 365.612823,373.509735 369.650543,373.628174 
	C372.808838,373.720886 375.978882,373.516388 379.131195,373.681793 
	C382.682129,373.868164 383.738251,372.211182 383.707367,368.874237 
	C383.669647,364.794067 382.428497,361.043121 381.005829,356.519592 
z"/>
<path fill="#000000" opacity="1.000000" stroke="none" 
	d="
M95.987862,376.323547 
	C91.638756,375.292236 87.651741,375.194763 83.658257,375.350128 
	C80.794189,375.461517 78.976997,373.983215 78.877991,371.364685 
	C78.477013,360.759735 77.470169,350.001373 84.848419,340.855133 
	C86.906624,338.303741 89.043396,335.961212 92.458687,335.748962 
	C95.241402,335.576050 95.758789,334.061401 95.622505,331.779999 
	C95.005562,321.451782 96.534393,311.198364 96.710983,300.893677 
	C96.910179,289.269806 101.015366,279.366486 112.243034,274.671478 
	C118.548737,272.034668 125.711014,271.369415 132.536270,270.073517 
	C139.376587,268.774750 146.267303,267.723663 153.160324,266.734039 
	C154.684357,266.515228 156.520874,266.233154 157.732346,267.885406 
	C157.974670,269.756622 156.735321,270.138214 155.328690,270.311188 
	C142.964172,271.831573 130.850418,274.671204 118.678024,277.215027 
	C109.796135,279.071228 102.940178,286.705627 101.247765,295.448792 
	C99.812088,302.865601 101.268425,310.358215 99.286491,318.438904 
	C105.472946,318.085327 111.154228,317.790710 116.829269,317.404297 
	C117.689651,317.345734 118.397659,316.600372 118.445572,315.718018 
	C118.663361,311.707275 120.509285,308.077606 121.340248,304.125336 
	C117.329300,302.408875 113.471992,300.927246 109.786217,299.099670 
	C108.260155,298.342957 106.123383,296.962006 107.366493,294.893127 
	C108.679184,292.708466 110.384933,294.455109 112.058273,295.195984 
	C115.439125,296.692932 118.475243,299.136749 122.528114,299.792694 
	C123.409943,296.758270 122.277451,294.902740 120.529472,293.234680 
	C119.445633,292.200378 118.284149,291.232330 117.307976,290.104340 
	C116.219299,288.846405 114.887115,287.260620 116.490654,285.749573 
	C118.332764,284.013733 119.352402,286.095795 120.492630,287.175323 
	C123.010986,289.559601 125.484535,291.982941 127.015686,295.046509 
	C130.142807,294.399994 129.028503,292.447052 128.523926,291.092987 
	C127.127556,287.345764 127.748375,283.509857 127.727760,279.708344 
	C127.715416,277.429016 128.713104,275.948090 131.681671,276.308197 
	C131.972061,281.667145 129.666412,287.386261 134.284332,292.156097 
	C135.493927,291.783539 136.871948,291.192352 138.308929,290.948273 
	C142.375183,290.257721 142.872421,288.121887 141.550735,284.543488 
	C140.410446,281.456146 139.496445,278.078644 143.071289,274.293793 
	C144.919632,279.535767 144.596420,284.580139 147.545197,288.573212 
	C150.741043,287.468811 149.371201,284.927979 149.628052,283.057281 
	C149.830627,281.581879 149.678101,280.061310 149.775116,278.566772 
	C149.872864,277.061157 150.621994,275.868195 152.241867,276.068787 
	C153.904144,276.274658 154.122299,277.504730 153.854385,279.077942 
	C153.522385,281.027527 153.456573,283.032074 153.404663,285.016235 
	C153.372147,286.259308 153.801636,287.392120 155.300400,287.485046 
	C157.067245,287.594666 157.586075,286.426697 157.625946,284.927795 
	C157.727783,281.101135 157.529587,277.238495 158.014572,273.462585 
	C158.237061,271.730438 158.040466,269.319763 160.510849,268.233124 
	C162.969360,269.267639 162.265701,271.451233 162.154144,273.291077 
	C162.054443,274.935120 161.416046,276.556641 161.393524,278.193298 
	C161.329620,282.836273 159.934921,288.050415 167.584335,290.448639 
	C158.057602,293.136658 162.161240,300.298431 160.585999,305.259705 
	C157.370773,315.386139 158.170746,326.007233 158.396469,336.461945 
	C158.587662,345.317932 156.852737,353.965454 156.242859,362.727173 
	C156.119400,364.500793 155.479370,366.326965 153.294388,365.789764 
	C151.145691,365.261505 152.328293,363.443542 152.442886,362.034271 
	C153.370453,350.626923 155.403687,339.283539 154.638763,327.774719 
	C154.036972,318.720490 155.475266,309.894684 157.282410,301.082611 
	C158.995987,292.726654 158.037308,291.695160 149.947083,292.297455 
	C142.975494,292.816437 136.408569,295.167908 130.735809,298.758484 
	C124.253159,302.861664 123.404907,310.502045 122.362869,317.550903 
	C121.661514,322.295197 121.338028,327.097961 120.558876,331.827332 
	C119.959328,335.466522 120.757095,337.391479 124.594299,338.953674 
	C134.024094,342.792786 139.228790,345.816254 138.321182,359.092102 
	C138.084412,362.555237 138.795380,366.038452 137.669006,369.498169 
	C136.591110,372.808990 134.670593,374.389343 131.115448,374.392426 
	C126.478767,374.396454 121.830742,373.998047 117.209587,375.194885 
	C114.217598,375.969757 112.904083,374.519257 112.527725,371.214417 
	C111.791794,364.752045 108.558220,363.048462 102.584000,364.976044 
	C98.954140,366.147247 97.629227,367.999878 99.439064,371.639679 
	C100.981911,374.742584 100.042175,376.437012 95.987862,376.323547 
M99.389862,324.395752 
	C99.331161,327.549500 99.425133,330.646759 100.143417,333.785675 
	C100.877739,336.994659 99.739265,339.528992 95.818726,339.305481 
	C92.378448,339.109344 90.453987,341.031921 88.440346,343.470642 
	C82.865402,350.222504 82.157608,358.126190 82.305801,366.367859 
	C82.365738,369.700989 83.225594,372.000732 87.100258,371.628387 
	C90.348503,371.316284 95.107826,373.378296 94.685143,366.993591 
	C94.577576,365.368805 95.257248,363.983154 96.581436,363.138062 
	C100.750687,360.477448 105.435814,358.733704 110.215973,360.171021 
	C114.360100,361.417084 115.942879,365.358490 116.454536,369.561157 
	C116.505188,369.977264 116.949104,370.345459 117.157074,370.656097 
	C121.123718,370.656097 124.946655,370.611572 128.767914,370.672302 
	C131.174911,370.710571 133.259216,370.008148 133.805542,367.536804 
	C135.023468,362.027496 135.526459,356.509064 133.395889,351.003204 
	C131.074661,345.004669 125.403412,343.928955 120.406845,342.046265 
	C117.597038,340.987549 116.530205,339.588104 116.607758,336.628448 
	C116.695045,333.297089 116.984131,330.036896 117.525009,326.747772 
	C117.815926,324.978668 118.586685,322.053986 115.931252,321.663940 
	C110.344490,320.843384 104.721794,321.212036 99.389862,324.395752 
z"/>
<path fill="#000000" opacity="1.000000" stroke="none" 
	d="
M280.984192,366.666321 
	C287.561310,367.480591 293.813385,365.257141 299.878693,367.269531 
	C294.209900,372.528381 287.067169,368.919769 280.898163,371.005341 
	C281.360382,380.422363 286.367493,388.503448 287.898468,397.317780 
	C289.233704,405.005249 293.620728,405.911285 299.715485,406.746735 
	C307.324554,407.789764 312.105804,417.458954 308.886505,424.358459 
	C308.069916,426.108582 306.621887,427.040955 304.587982,427.316925 
	C290.472626,429.232330 276.370483,431.245178 262.260895,433.203369 
	C259.441345,433.594696 256.451050,433.468262 255.994003,429.989044 
	C254.528534,418.833374 250.713272,408.046997 250.684387,396.683594 
	C250.665771,389.359192 252.741364,382.306702 253.814621,375.123108 
	C253.947632,374.232941 254.431580,373.524109 255.374725,373.437439 
	C256.644470,373.320740 257.211731,374.215027 257.209137,375.281158 
	C257.203552,377.599426 257.471771,380.045227 256.845123,382.212494 
	C254.551086,390.145905 253.999710,398.074768 255.331055,406.251526 
	C256.074860,410.819702 258.136505,412.671661 262.688202,411.579651 
	C269.627136,409.914978 276.344727,407.422455 283.477570,406.433716 
	C286.526581,406.011078 286.034637,402.978363 285.378479,401.121002 
	C282.065674,391.743683 277.974518,382.617950 276.651672,372.635956 
	C276.379883,370.585052 274.945618,370.408752 273.370453,370.435028 
	C254.235199,370.754333 235.057510,369.218658 215.971146,371.266083 
	C207.073074,372.220581 205.245178,375.122406 207.622284,384.643677 
	C208.386292,387.703888 207.896469,390.064789 207.605179,392.908356 
	C207.032562,398.498138 207.411026,404.212402 207.733521,409.855865 
	C207.905899,412.872009 207.848587,415.617035 205.528595,418.582825 
	C202.746689,412.251373 197.887024,415.461395 193.936066,415.681885 
	C189.334732,415.938690 184.790909,417.216858 180.220520,418.042908 
	C179.051392,418.254211 177.886810,418.399963 177.048508,416.740295 
	C177.562973,414.312317 179.607529,413.938416 181.809128,413.640320 
	C187.236069,412.905518 192.675568,412.224884 198.067276,411.278748 
	C204.091324,410.221619 204.249161,409.818634 203.063049,403.128113 
	C199.374985,403.847046 195.660446,405.234619 192.003693,405.096100 
	C188.394363,404.959381 184.715073,407.796387 180.837097,405.098969 
	C182.309891,401.940033 185.007980,401.927429 187.564087,401.671753 
	C191.690079,401.259155 195.731796,400.692596 199.742172,399.371521 
	C203.507828,398.131073 204.336533,396.095795 203.193710,392.388153 
	C194.520416,391.647766 186.336838,395.243317 177.776093,395.617950 
	C176.140182,395.689545 174.177979,396.777374 173.996475,394.154297 
	C173.837860,391.862122 175.874496,391.744080 177.568634,391.695282 
	C184.888931,391.484436 191.813278,388.724457 199.162674,388.491180 
	C203.098648,388.366272 203.713654,386.933899 203.315643,381.243896 
	C196.010437,382.123657 188.686829,385.010101 181.100464,381.630463 
	C188.259766,378.322571 197.238571,380.678680 203.504608,374.632202 
	C188.015274,373.752655 172.576294,376.888153 157.016983,374.656799 
	C157.714691,371.120453 159.879532,371.607819 161.537781,371.700623 
	C172.374649,372.306732 183.125031,370.486633 193.941513,370.646729 
	C198.306641,370.711304 202.466034,369.229126 206.668274,368.449982 
	C224.066116,365.224487 241.558380,367.253998 258.990509,366.704987 
	C266.149445,366.479523 273.321350,366.667084 280.984192,366.666321 
M280.413361,411.087097 
	C275.135406,412.486115 269.918091,414.659607 264.563416,415.078888 
	C258.513428,415.552551 257.278961,418.011292 258.949738,423.650513 
	C259.460785,425.375305 258.782745,427.378632 260.645264,429.329193 
	C274.326843,427.439484 288.366791,425.511505 302.402039,423.549835 
	C304.527649,423.252747 305.435699,421.873199 305.643005,419.770782 
	C306.028137,415.865021 302.771423,411.821411 298.384766,410.361267 
	C292.556366,408.421204 286.920654,409.834717 280.413361,411.087097 
z"/>
<path fill="#000000" opacity="1.000000" stroke="none" 
	d="
M214.299042,190.237137 
	C219.581116,187.576904 224.582687,186.228439 229.852676,189.042404 
	C231.566559,189.957565 232.662003,188.864487 233.833954,187.919922 
	C237.481369,184.980225 241.602692,182.810440 245.707642,180.610947 
	C247.109421,179.859848 248.676559,179.186859 249.675858,180.827179 
	C250.813126,182.693985 248.962418,183.532242 247.758942,184.225769 
	C244.157089,186.301392 240.458237,188.209579 237.479004,191.213593 
	C238.645996,197.041580 237.761734,198.276550 231.611389,199.378296 
	C223.082932,200.906021 221.969803,202.540543 223.543411,211.225266 
	C224.708725,217.656555 227.014648,219.537292 233.613571,219.669785 
	C237.920410,219.756256 242.233719,219.292831 246.519531,220.500748 
	C249.945465,221.466339 252.621948,220.187119 254.353592,216.861710 
	C255.125320,215.379715 255.456024,213.196014 257.859833,213.155411 
	C260.014099,217.076935 256.669495,224.223312 252.265518,224.218109 
	C244.143280,224.208496 235.998566,223.774185 227.911835,223.005524 
	C224.786072,222.708435 222.448212,220.030518 219.767426,217.643066 
	C211.514572,222.254471 202.031815,223.110291 192.858826,225.062103 
	C190.269531,225.613052 186.639999,226.580673 185.286728,223.266785 
	C184.121124,220.412476 183.636826,216.924332 186.115326,214.234375 
	C187.464783,214.387604 188.193802,215.025208 188.121246,215.870926 
	C187.556427,222.455475 190.929245,221.378693 195.481262,220.401047 
	C200.793564,219.260132 206.190094,218.582245 211.370682,216.779144 
	C219.021912,214.116119 220.889786,211.137970 219.632538,203.243546 
	C219.470459,202.225693 219.390228,200.878250 218.333908,200.790054 
	C210.955338,200.174057 204.210495,195.251358 196.316254,197.811203 
	C193.665085,198.670883 190.530365,199.409515 187.711121,196.400314 
	C190.904388,193.543976 195.166504,194.937073 198.397934,193.035355 
	C196.386139,191.427948 193.242386,191.488159 192.047287,188.683762 
	C192.926620,186.021988 194.698441,186.807632 196.432068,187.491928 
	C199.216507,188.590973 202.024155,189.636932 204.772308,190.820679 
	C207.922623,192.177673 210.938309,191.798889 214.299042,190.237137 
z"/>
<path fill="#000000" opacity="1.000000" stroke="none" 
	d="
M180.031189,248.025391 
	C180.565201,250.090683 179.313934,250.974274 177.825516,251.983215 
	C173.781921,254.724197 169.856140,257.638672 165.539764,260.639465 
	C170.119904,260.639465 174.787476,261.208740 179.262070,260.521545 
	C188.716721,259.069550 198.179550,259.637665 207.621445,259.737885 
	C228.354080,259.957947 248.941620,258.531921 269.482513,255.794647 
	C282.859283,254.012085 296.356262,254.732513 310.246338,254.629333 
	C310.684479,254.599045 310.990417,254.939209 311.148682,255.106781 
	C311.062683,258.762238 308.460144,258.276184 306.155457,258.366669 
	C296.361267,258.751221 286.565155,257.808899 276.751923,259.184052 
	C266.250458,260.655640 255.602463,261.065674 245.086960,262.456940 
	C233.288116,264.018005 221.477203,263.299683 209.682968,263.257812 
	C192.724304,263.197540 175.819626,264.335632 158.891541,264.913086 
	C155.656631,265.023468 155.570343,263.518677 156.036011,261.311951 
	C156.190216,260.581085 156.817154,259.747375 157.466293,259.354858 
	C163.834564,255.504364 170.236923,251.708893 176.683121,247.990585 
	C177.319000,247.623795 178.311005,247.874420 179.526611,247.872009 
	C179.915497,247.905533 179.991928,247.986115 180.031189,248.025391 
z"/>
<path fill="#000000" opacity="1.000000" stroke="none" 
	d="
M159.947021,425.003967 
	C157.338257,426.565033 154.030380,426.986053 154.253006,431.689240 
	C173.768921,435.059204 193.149765,434.823792 213.194946,429.623993 
	C210.283997,427.211426 208.850037,424.740204 208.762283,421.675354 
	C208.727127,420.447174 209.128204,419.363495 211.051529,419.179596 
	C212.713974,421.634766 214.369156,424.256531 217.230362,426.132812 
	C219.821426,427.831879 218.458191,431.925354 215.105637,433.086212 
	C208.833984,435.257751 202.299026,436.950165 195.730972,437.052307 
	C182.309357,437.260895 168.798660,438.796173 155.471313,435.750488 
	C153.127045,435.214752 150.055420,435.450684 149.835144,432.025024 
	C149.617004,428.632599 150.238525,425.454926 153.591461,423.427856 
	C157.137512,421.284058 160.909897,419.566681 164.465179,417.410278 
	C167.126862,415.795898 167.695801,414.138794 167.677200,411.475677 
	C167.608521,401.654358 167.608383,391.831879 167.693039,382.010773 
	C167.708344,380.235748 166.889175,377.847290 170.921051,376.943420 
	C170.921051,391.273895 170.921051,405.324615 170.921051,419.793274 
	C167.194122,419.750336 163.979446,422.810699 159.947021,425.003967 
z"/>
<path fill="#000000" opacity="1.000000" stroke="none" 
	d="
M316.750031,175.456024 
	C314.927124,176.655426 313.382019,177.618713 311.742188,178.377136 
	C308.873627,179.703873 305.829346,180.331497 303.738342,177.295685 
	C301.753326,174.413757 302.056030,171.107498 304.444519,168.632309 
	C306.996063,165.988159 310.689850,165.612854 313.538910,167.589920 
	C315.751831,169.125549 318.253326,171.530380 316.750031,175.456024 
z"/>
<path fill="#000000" opacity="1.000000" stroke="none" 
	d="
M144.719818,173.008606 
	C145.511520,169.049561 147.088043,166.617935 151.314453,166.593185 
	C155.280029,166.569962 158.351837,167.130539 158.301758,172.020050 
	C158.263351,175.768570 154.365051,178.987595 150.268845,178.134811 
	C147.819870,177.624954 144.935059,176.902206 144.719818,173.008606 
z"/>
<path fill="#000000" opacity="1.000000" stroke="none" 
	d="
M276.920227,402.020325 
	C270.349426,404.795807 263.858185,405.609955 257.262970,405.922119 
	C256.810486,403.133636 258.398376,402.459534 259.744751,402.145905 
	C264.727478,400.985138 269.831665,400.442322 274.765503,398.930023 
	C276.497864,398.399048 278.659973,398.939453 276.920227,402.020325 
z"/>
<path fill="#000000" opacity="1.000000" stroke="none" 
	d="
M253.233505,193.383942 
	C248.300461,193.870087 243.848709,196.731934 238.816864,194.143661 
	C243.215134,189.640961 254.399109,188.437592 257.884796,191.698288 
	C257.122162,193.873764 255.200684,193.138016 253.233505,193.383942 
z"/>
<path fill="#000000" opacity="1.000000" stroke="none" 
	d="
M271.877869,386.303375 
	C268.217621,386.906952 264.973511,387.474182 261.728394,388.035217 
	C260.716461,388.210144 259.672150,388.258179 259.175171,387.153595 
	C258.692841,386.081543 259.201874,384.887634 260.134399,384.662811 
	C265.335571,383.408905 270.501923,381.732086 275.971954,382.421051 
	C276.274597,382.459167 276.492920,383.166748 276.761902,383.580292 
	C275.922333,385.675323 273.950165,385.709290 271.877869,386.303375 
z"/>
<path fill="#000000" opacity="1.000000" stroke="none" 
	d="
M264.337219,396.509644 
	C261.450287,397.413696 260.316803,396.529266 261.546875,394.020905 
	C263.478180,390.082642 274.356689,388.563873 278.079773,391.877716 
	C274.018280,394.879913 268.621735,393.568359 264.337219,396.509644 
z"/>
<path fill="#000000" opacity="1.000000" stroke="none" 
	d="
M273.605499,373.056946 
	C275.367340,374.323242 275.363953,375.502563 273.732361,376.200287 
	C269.563232,377.983215 265.385559,377.760925 259.858978,376.050873 
	C264.643829,372.315338 269.332733,374.291412 273.605499,373.056946 
z"/>
<path fill="#000000" opacity="1.000000" stroke="none" 
	d="
M118.195587,309.649170 
	C113.556946,310.405151 109.228378,311.140991 104.707886,309.196167 
	C108.656120,305.397491 117.057846,305.801941 118.195587,309.649170 
z"/>
<path fill="#000000" opacity="1.000000" stroke="none" 
	d="
M110.287231,334.639954 
	C112.347664,334.887299 114.499222,334.218567 114.880417,337.287964 
	C111.362854,339.073761 107.746857,338.676453 104.160698,337.629669 
	C102.940704,337.273529 101.533661,336.463715 102.167450,334.795349 
	C102.770607,333.207611 104.237389,333.534332 105.555664,333.800018 
	C106.991272,334.089294 108.431252,334.356873 110.287231,334.639954 
z"/>
<path fill="#000000" opacity="1.000000" stroke="none" 
	d="
M104.556580,326.953094 
	C108.008148,327.011322 111.414444,325.455170 114.230408,328.749115 
	C111.163033,331.452057 107.418037,330.690094 104.305244,330.978699 
	C102.165535,331.177063 102.442307,328.552429 104.556580,326.953094 
z"/>
</svg>