<svg version="1.1" id="Layer_1" xmlns="http://www.w3.org/2000/svg" xmlns:xlink="http://www.w3.org/1999/xlink" x="0px" y="0px"
	 width="100%" viewBox="0 0 448 448" enable-background="new 0 0 448 448" xml:space="preserve">
<path fill="#000000" opacity="1.000000" stroke="none" 
	d="
M284.194580,434.388611 
	C274.155762,436.311188 264.477081,435.133820 254.844589,435.282471 
	C251.042084,435.341156 249.784851,432.765076 249.657471,429.313354 
	C249.014450,411.887878 246.766708,394.533295 247.587967,377.037384 
	C247.871964,370.987213 246.554077,369.613708 240.630783,370.523224 
	C232.648865,371.748901 224.684891,371.235901 216.713547,371.320465 
	C213.383667,371.355804 211.571228,372.208771 211.093018,375.949249 
	C209.542770,388.075134 210.320618,400.224213 210.651535,412.338715 
	C210.766983,416.565399 214.753357,419.793091 216.604828,423.682770 
	C219.781876,430.357330 217.539841,435.341034 210.394226,437.330414 
	C193.189224,442.120453 175.887619,441.335083 158.625854,437.901337 
	C155.228561,437.225555 150.838242,436.388733 149.936050,432.266693 
	C148.775681,426.965118 152.630997,423.326202 155.801285,419.711273 
	C156.544357,418.863953 157.625305,418.180908 158.685379,417.766602 
	C163.125244,416.031281 163.127808,413.005951 161.346512,409.347992 
	C158.643570,403.797424 159.370346,397.990143 160.257050,392.231720 
	C161.006622,387.363800 162.051300,382.541321 162.970871,377.669617 
	C154.603333,376.715332 155.502609,376.461365 153.402023,369.023407 
	C151.066299,360.752808 154.039948,353.029144 153.782730,345.032135 
	C153.316879,330.547699 153.544479,316.036499 153.712357,301.539154 
	C153.757492,297.639954 152.471878,296.288452 148.535797,296.298126 
	C137.577621,296.325012 131.101471,300.658478 126.197105,310.714508 
	C122.986031,317.298584 121.205887,323.998016 121.323906,331.283569 
	C121.362000,333.635712 121.705345,335.022095 124.482956,335.957520 
	C135.028046,339.509033 139.233887,345.722687 139.336609,356.909607 
	C139.388641,362.575500 139.255920,368.244019 139.368271,373.908142 
	C139.454498,378.255341 137.618973,380.591431 133.156021,380.348511 
	C127.691574,380.051025 122.224503,379.721008 116.778648,379.196472 
	C114.039795,378.932617 113.138847,376.794708 112.532951,374.334106 
	C111.696426,370.936829 110.726631,366.401703 107.087349,366.119537 
	C103.105766,365.810852 101.929863,370.690857 101.248634,373.762878 
	C99.907425,379.811066 96.278625,380.889984 91.039223,380.422028 
	C88.227966,380.170929 85.375984,380.406677 82.543701,380.353119 
	C77.416870,380.256195 75.013657,378.299072 74.757637,373.313690 
	C74.244850,363.328278 74.622536,353.391022 77.095726,343.607391 
	C78.682739,337.329315 83.234108,333.939148 88.555687,331.249207 
	C90.292603,330.371216 91.673515,329.562317 91.650467,327.278534 
	C91.522217,314.567932 94.642387,302.283661 96.827370,289.892853 
	C98.389503,281.034210 102.865601,274.630524 111.025421,269.477539 
	C122.538376,262.207001 134.440292,259.677490 147.570007,260.657959 
	C151.630264,260.961182 155.112854,260.414764 158.370987,257.161560 
	C161.454208,254.083008 165.666550,252.135269 169.689972,249.487701 
	C166.882645,246.404800 163.266403,246.899429 160.343369,245.789276 
	C156.329391,244.264755 152.057083,243.405563 147.875168,242.341019 
	C137.221375,239.628983 128.599533,233.669525 123.334969,224.213135 
	C116.975739,212.790497 109.380486,201.804871 106.274788,188.863754 
	C104.503464,181.482819 103.644165,173.858398 102.774513,166.297562 
	C102.418694,163.204056 101.098564,162.538406 98.334732,162.339966 
	C80.694939,161.073425 67.125496,153.173157 58.197731,137.607956 
	C56.308277,134.313782 53.981915,131.130676 51.296558,128.459702 
	C44.299461,121.500107 42.227348,112.726463 41.739853,103.464951 
	C41.337440,95.819794 41.026699,88.071854 41.807327,80.485939 
	C42.907959,69.790352 46.821911,60.314232 56.348488,53.853516 
	C63.889256,48.739536 72.303185,45.789780 80.710182,42.722908 
	C96.475151,36.971867 112.276199,31.158585 128.603638,27.354248 
	C140.712921,24.532753 153.276443,24.350620 165.777451,24.574577 
	C173.126846,24.706242 180.355118,24.584784 187.218781,27.933729 
	C193.871399,31.179689 198.640289,35.822773 200.121048,43.270958 
	C200.669052,46.027386 200.496460,48.884632 197.387283,50.002979 
	C194.211700,51.145214 191.650116,49.677853 190.627563,46.593410 
	C189.060883,41.867630 185.269867,40.761051 181.204300,38.835033 
	C162.910889,30.168730 144.657303,34.519684 126.698204,38.802464 
	C106.698769,43.571804 87.443092,50.924507 68.474861,58.941895 
	C57.722683,63.486561 52.607613,72.194191 51.631351,82.957687 
	C50.722649,92.976364 50.445198,103.195030 54.020519,113.082153 
	C55.388138,116.864151 57.866520,119.668526 60.179478,122.611679 
	C65.098335,128.870758 68.432640,136.433243 74.690582,141.541611 
	C82.491440,147.909485 91.370613,152.277618 101.664009,152.601898 
	C110.422485,152.877792 111.640747,153.619659 112.334641,162.514664 
	C113.698608,179.999527 119.087700,195.990479 127.831688,211.268051 
	C132.583633,219.570663 139.101700,224.479767 147.004395,229.164581 
	C160.782135,237.332199 176.332916,238.045578 191.214203,241.607849 
	C197.964920,243.223846 204.566406,245.532898 211.547058,246.132080 
	C212.700073,246.231049 213.845856,246.636307 214.987823,246.608246 
	C229.970245,246.239868 244.889725,248.280930 259.883820,247.668869 
	C277.534271,246.948395 293.928589,242.034500 308.846802,232.704178 
	C314.992920,228.860199 319.111145,222.756561 322.540131,216.422928 
	C324.145172,213.458252 326.067413,210.761505 328.120270,208.172455 
	C337.259186,196.646637 342.247467,183.601501 343.796631,168.972275 
	C344.614014,161.253265 346.976898,153.742798 348.082703,146.005524 
	C348.775269,141.159622 348.434265,136.378067 348.648651,131.572723 
	C348.899689,125.946121 350.460785,124.875687 356.044556,125.241058 
	C361.890167,125.623566 367.223236,122.786514 372.822968,121.547737 
	C387.567902,118.285828 390.923889,107.815140 390.821594,94.205429 
	C390.690338,76.741173 384.644836,62.322388 372.396240,50.039249 
	C369.015656,46.649178 365.547455,43.204338 362.582581,39.425182 
	C356.969391,32.270458 349.244293,30.447430 340.900055,30.456289 
	C332.431702,30.465279 323.936676,30.744095 315.502350,31.472286 
	C302.589966,32.587097 290.033295,35.689671 277.589569,39.244507 
	C274.625916,40.091152 272.310150,41.898663 269.719055,43.642818 
	C270.266327,45.052799 270.904358,46.224468 271.172729,47.475449 
	C272.023682,51.441486 270.086639,54.485115 266.104034,54.236900 
	C247.225235,53.060284 229.308578,58.958515 210.961655,61.570457 
	C204.594543,62.476906 198.191681,63.458778 191.845032,64.603996 
	C188.473434,65.212395 185.003754,66.086266 182.277847,68.576248 
	C179.591232,71.030312 176.614761,71.250351 174.643845,68.038048 
	C172.734222,64.925629 172.934845,61.447117 176.451874,59.325390 
	C180.323212,56.989910 184.698318,55.454086 189.097549,54.855663 
	C203.717865,52.866867 218.171478,50.159012 232.605896,47.087543 
	C238.983047,45.730564 245.608719,44.315323 252.320129,44.625935 
	C254.168610,44.711479 255.950562,44.683853 256.785370,42.390423 
	C259.215118,35.715103 265.412140,32.799007 271.106628,30.884146 
	C286.494324,25.709791 302.201385,21.452084 318.723999,21.596571 
	C325.524292,21.656038 332.349640,21.014053 339.105316,20.479479 
	C355.444000,19.186605 367.201965,26.132978 376.542755,38.783485 
	C379.890167,43.316994 383.698944,47.522209 387.443359,51.747723 
	C395.853943,61.239025 399.148865,72.734993 400.244537,84.957077 
	C400.763306,90.743851 400.144379,96.623093 400.380280,102.446701 
	C400.892395,115.090263 391.747284,126.501465 380.696899,129.908081 
	C374.369263,131.858765 367.939941,133.361374 361.589935,135.170593 
	C359.158997,135.863190 358.361389,136.849075 358.323120,139.220367 
	C358.028748,157.446945 354.270416,175.157135 349.054016,192.464340 
	C346.701904,200.268265 343.093414,207.929230 337.169739,214.103134 
	C335.243927,216.110321 333.739441,218.599777 332.374786,221.053558 
	C327.187927,230.379944 320.251221,238.054230 311.247803,244.166901 
	C311.259430,246.844360 313.336243,248.369339 315.314026,249.780624 
	C317.600800,251.412399 320.067963,252.648895 321.504059,255.355423 
	C322.651917,257.518768 325.105804,256.505829 327.010590,256.637726 
	C343.097137,257.751495 356.403717,263.349243 363.279083,279.200165 
	C366.620514,286.903687 367.421997,295.195801 368.293365,303.412048 
	C369.447845,314.298004 370.647095,325.197266 370.341278,336.178894 
	C370.267761,338.818237 371.627716,339.740997 374.056641,339.632568 
	C375.054291,339.588013 376.072815,339.760101 377.053528,339.626190 
	C389.064575,337.986145 391.912659,345.808044 393.201019,355.135345 
	C393.901276,360.205109 393.316925,365.450806 393.333252,370.617096 
	C393.343781,373.949738 391.824005,375.706665 388.444794,376.412689 
	C380.340149,378.106018 372.183655,377.186340 364.053802,377.199860 
	C361.026428,377.204895 359.359344,375.018219 358.734863,372.106659 
	C358.422760,370.651398 358.130585,369.188354 357.731689,367.756073 
	C357.192139,365.818573 356.118652,364.281372 353.849609,364.833771 
	C351.811646,365.329895 350.497070,366.472961 350.284912,368.978516 
	C349.575378,377.357819 349.458801,377.587311 341.131866,377.263245 
	C335.919525,377.060425 330.913605,378.488159 325.742279,378.398621 
	C321.581909,378.326630 319.573486,376.510681 319.661102,372.325317 
	C319.830566,364.232117 318.568115,356.001373 322.498779,348.310120 
	C323.354828,346.635101 323.908905,344.650391 325.802795,344.214722 
	C330.239624,343.194153 330.777588,340.251495 330.722107,336.352203 
	C330.551514,324.355164 330.659119,312.354218 330.653656,300.354767 
	C330.653137,299.188507 330.707062,298.012909 330.585266,296.857513 
	C329.848999,289.873291 326.595490,287.741638 319.661865,289.378662 
	C317.371918,289.919312 317.376801,291.442230 317.355927,293.134766 
	C317.274139,299.777191 317.081512,306.389557 316.496613,313.035645 
	C315.697876,322.111389 315.479340,331.241211 314.463104,340.320374 
	C313.945251,344.946838 314.080444,349.655121 315.556610,354.160370 
	C316.141327,355.944977 316.339478,357.718750 316.338593,359.559235 
	C316.335236,366.408264 313.718994,369.412140 306.805023,369.258911 
	C300.276581,369.114136 293.967621,370.720642 287.224640,370.576508 
	C286.694977,379.940308 291.209442,387.839172 292.979431,396.325256 
	C294.113373,401.761627 297.017944,405.117218 303.107849,406.225830 
	C308.712158,407.246033 310.627563,412.491486 311.242462,417.628357 
	C312.442352,427.651855 308.841797,431.823029 298.028229,433.241241 
	C293.597137,433.822357 289.114258,434.008606 284.194580,434.388611 
M163.348541,346.498779 
	C163.348648,350.831299 163.613342,355.184448 163.278275,359.490875 
	C162.904694,364.292419 164.638947,366.179810 169.498596,365.690765 
	C183.676453,364.264038 197.847794,362.435547 212.066818,361.837250 
	C231.320190,361.027100 250.589828,360.526581 269.849854,359.747589 
	C280.640808,359.311127 291.412018,358.060638 302.241821,358.566589 
	C303.346191,358.618164 304.632874,358.709686 305.499817,357.178497 
	C304.003998,350.189423 304.299835,342.829468 304.848846,335.586456 
	C306.002502,320.366730 307.669464,305.187836 307.655151,289.897186 
	C307.652344,286.908356 308.085266,283.946106 308.338806,280.984253 
	C308.840759,275.120270 308.487030,269.183044 308.487030,263.025482 
	C300.943726,263.756348 294.097168,264.114075 287.373322,264.135834 
	C255.923035,264.237701 224.496094,264.619629 193.084045,266.312897 
	C185.108078,266.742828 177.090118,266.378052 169.091644,266.417786 
	C167.303864,266.426666 165.009094,266.046539 164.554581,268.450348 
	C163.125000,276.011200 161.522766,283.642029 166.083481,291.177734 
	C163.316193,292.833374 163.317368,295.616608 163.326538,298.507294 
	C163.376221,314.171112 163.349426,329.835205 163.348541,346.498779 
M340.212494,349.555695 
	C339.547882,350.042419 338.952118,350.737152 338.207947,350.983429 
	C331.272125,353.278961 328.821960,356.952942 329.323212,364.106262 
	C329.472137,366.231812 329.975861,367.875427 332.413574,367.571350 
	C334.927856,367.257721 339.063507,369.287018 339.410278,365.127594 
	C340.059692,357.338043 345.576843,355.802277 351.395355,354.818298 
	C361.252777,353.151245 364.055725,354.885742 368.188904,364.217682 
	C368.688049,365.344635 369.036682,366.534943 370.415405,366.524780 
	C374.634460,366.493774 378.928528,367.291473 383.141357,365.926086 
	C383.142975,363.044403 382.289368,360.721405 381.701447,358.328766 
	C380.437897,353.186188 376.950806,350.151001 372.054260,349.553223 
	C367.988617,349.056854 363.507111,350.781891 360.937408,345.842651 
	C360.716278,345.417603 359.372345,345.372681 358.593597,345.476868 
	C355.159210,345.936584 351.749298,346.581696 348.313202,347.025299 
	C346.442169,347.266876 344.317261,348.050385 343.088165,345.759430 
	C343.278015,343.845703 344.698273,343.768738 346.005096,343.546173 
	C349.755463,342.907410 353.499786,342.227539 357.261536,341.664429 
	C358.631531,341.459351 360.263702,341.358765 360.375702,339.775726 
	C360.707001,335.093323 361.218506,330.355591 359.991943,325.621124 
	C354.615814,326.998688 349.856903,328.382874 345.022400,329.411926 
	C339.864349,330.509827 339.538635,333.575928 340.862976,337.565979 
	C346.022034,337.985962 351.023712,333.746857 357.047882,337.680847 
	C352.778595,340.100311 349.217255,340.053253 345.933655,340.890900 
	C341.506775,342.020233 341.417053,345.566376 340.212494,349.555695 
M181.309021,403.840607 
	C185.393661,400.478729 190.564529,401.899139 195.166077,400.778076 
	C198.651611,399.928894 201.645432,398.841431 200.450195,394.714966 
	C199.309402,390.776367 195.850571,392.230896 193.359924,393.051636 
	C187.931244,394.840607 182.201675,394.541656 176.730927,395.871460 
	C175.432602,396.187042 174.329315,396.009521 174.034485,394.532196 
	C173.705917,392.885651 174.690903,391.916809 176.193222,391.820709 
	C182.822037,391.396729 189.226440,389.596008 195.770004,388.736389 
	C200.883408,388.064636 201.419662,387.550171 199.702682,381.964111 
	C193.555511,383.018524 187.331467,384.571594 181.094238,381.647919 
	C187.061478,377.956757 195.242188,381.454132 201.539078,375.081818 
	C195.026978,374.085297 189.553635,373.776306 184.266815,374.772797 
	C180.849426,375.416962 176.731750,373.853210 174.164627,376.278564 
	C171.407669,378.883301 172.692764,383.222046 171.956940,386.754089 
	C171.889465,387.077942 171.667068,387.386230 171.662277,387.703949 
	C171.550003,395.138824 170.340652,402.588074 172.698868,409.962250 
	C173.644547,412.919403 175.212036,413.654358 178.103119,413.721924 
	C183.826035,413.855621 189.228836,411.889862 194.873474,411.625549 
	C200.412186,411.366180 201.163925,410.224945 199.975601,404.190002 
	C195.244965,404.783295 190.495193,405.373749 185.747086,405.977173 
	C183.997925,406.199463 182.072205,407.081024 181.309021,403.840607 
M89.043396,343.557129 
	C84.841728,351.067200 84.291267,359.286377 84.372520,367.627228 
	C84.386536,369.065948 84.713440,370.329193 86.433311,370.523743 
	C88.116295,370.714142 89.876190,370.815887 90.970139,369.207825 
	C91.706566,368.125244 92.187454,366.861908 92.731094,365.656219 
	C96.294624,357.753174 101.163597,354.743774 109.194954,355.718201 
	C115.951698,356.537994 118.612892,362.043640 121.241463,367.135254 
	C122.604897,369.776276 124.460709,369.543427 126.574913,369.633240 
	C128.312546,369.707001 129.252090,369.076660 129.631927,367.181122 
	C131.640411,357.158142 128.055725,349.564453 119.131096,345.209473 
	C118.247696,344.778412 117.435493,344.185425 116.631767,343.609650 
	C110.625999,339.307373 95.870895,338.973969 89.043396,343.557129 
M119.000465,277.465607 
	C114.428772,279.595520 109.845703,281.756775 108.429756,287.247925 
	C106.363121,295.262421 104.398697,303.319366 103.510506,311.551514 
	C103.281754,313.671722 101.417053,315.903656 103.255165,318.214752 
	C105.429901,318.015137 107.554886,317.711823 109.686897,317.649750 
	C112.918396,317.555634 113.431839,315.247986 113.561790,312.864044 
	C113.716866,310.019104 111.401047,310.564941 109.655037,310.351166 
	C107.982948,310.146454 105.855057,310.990509 104.955170,308.352081 
	C107.161209,305.380798 110.404480,307.066010 113.133972,306.693298 
	C115.022697,306.435425 117.061447,306.414734 117.368134,304.118011 
	C117.654343,301.974670 115.521645,301.577332 114.091873,300.934418 
	C112.287453,300.123016 110.233917,299.823517 108.743034,298.387207 
	C107.675552,297.358826 106.309578,296.241821 107.594391,294.600708 
	C108.661430,293.237762 110.152634,293.721771 111.106483,294.691528 
	C112.969910,296.586029 115.698090,296.531036 117.744728,297.981445 
	C119.047707,298.904816 120.557755,299.160919 121.731239,297.631805 
	C122.932144,296.066986 122.042473,294.810608 120.979614,293.669678 
	C119.509628,292.091766 117.890610,290.643585 116.513664,288.991302 
	C115.604530,287.900391 115.321404,286.460480 116.689728,285.469849 
	C117.881821,284.606873 118.873604,285.464569 119.727989,286.312775 
	C121.805710,288.375519 123.630356,290.738770 126.231789,292.074127 
	C128.359085,290.849335 127.575127,289.011261 127.634537,287.455566 
	C127.742455,284.629639 127.626343,281.793610 127.780701,278.971527 
	C127.871117,277.318604 128.852142,275.956543 130.626495,276.205109 
	C132.519440,276.470306 131.951111,278.005280 131.762894,279.361877 
	C131.358887,282.273651 130.000290,286.017029 132.477173,287.831848 
	C135.203369,289.829376 138.287460,287.112854 141.040909,285.770447 
	C141.569183,282.302856 138.739349,278.170502 143.076309,274.679474 
	C145.491394,278.609619 142.852295,284.602997 148.735168,286.103790 
	C150.668945,282.935303 148.506149,279.379791 150.521484,276.688538 
	C151.499084,275.383057 154.504974,275.225189 153.300934,272.765076 
	C152.091522,270.294006 149.319458,271.139893 147.434341,271.485443 
	C138.156189,273.186188 128.940231,275.226196 119.000465,277.465607 
M278.494141,383.655518 
	C277.570740,381.798096 277.988159,379.700287 277.500000,377.809021 
	C276.775391,375.001709 276.428040,371.317383 272.906616,370.803864 
	C268.674500,370.186646 264.301453,370.479706 259.989807,370.493439 
	C258.451904,370.498322 257.481323,371.529999 257.474121,373.056488 
	C257.428833,382.634125 257.451233,392.212036 257.451233,401.565063 
	C264.724701,402.774872 271.112366,398.002075 277.866943,400.341370 
	C272.672760,405.529877 265.382538,403.933533 258.678955,407.176910 
	C267.875641,406.951843 275.944061,406.046600 284.026611,403.416840 
	C282.171234,396.824646 280.431366,390.642853 278.494141,383.655518 
M345.628632,297.962280 
	C347.965851,295.994232 350.303040,294.026215 352.793945,291.928772 
	C355.162903,294.797913 354.318542,296.892975 352.071808,298.578125 
	C349.422638,300.565125 346.753784,302.620209 343.816620,304.094086 
	C342.001434,305.005005 341.359741,305.975281 341.341003,307.841797 
	C341.281677,313.755890 341.781158,319.686157 340.432312,325.915955 
	C345.442444,324.905731 350.040833,324.309418 354.432465,323.012756 
	C360.502747,321.220520 361.575165,316.337646 357.431519,310.919189 
	C347.591339,314.649506 347.591339,314.649506 345.030670,312.334137 
	C346.486420,309.892883 349.277100,310.013947 351.465179,309.067535 
	C358.494293,306.027252 358.750427,305.751404 357.560425,298.466949 
	C356.422974,291.504028 355.537354,284.419952 349.950745,278.282166 
	C347.264557,285.761780 339.248352,290.533539 341.726227,299.537445 
	C343.386414,300.037811 344.162445,298.988922 345.628632,297.962280 
M279.676636,424.707947 
	C286.905792,424.330780 294.181274,424.195587 300.857025,420.934418 
	C300.056061,416.674896 294.762268,412.505951 290.472656,413.199982 
	C281.151184,414.708191 271.932739,416.822266 262.492554,417.640778 
	C260.182404,417.841064 259.215454,419.531067 259.332764,421.934387 
	C259.434998,424.029480 259.930481,425.652130 262.366547,425.582916 
	C267.834412,425.427612 273.357941,426.381531 279.676636,424.707947 
M202.765488,428.588837 
	C204.626999,428.179504 205.863602,427.428772 205.069382,425.153687 
	C204.489975,423.494019 203.653976,423.004456 201.769073,423.054291 
	C192.290970,423.304901 182.805603,423.389984 173.323822,423.339600 
	C169.365555,423.318573 166.491043,424.903687 163.537445,428.412292 
	C176.832153,431.205048 189.387558,432.065063 202.765488,428.588837 
M338.358002,272.171509 
	C337.620361,275.020020 336.882690,277.868500 335.990753,281.312836 
	C338.825348,281.195221 339.260529,283.920258 340.981323,285.658325 
	C342.608765,282.008881 345.482635,279.522430 346.053131,275.669403 
	C346.310120,273.933746 346.259308,272.240723 344.703094,271.993042 
	C342.673920,271.670197 340.752686,267.864349 338.358002,272.171509 
M334.619781,270.514984 
	C334.710419,266.321472 331.139740,266.887726 328.888702,266.674286 
	C325.956451,266.396240 326.409760,269.150757 326.337799,271.073822 
	C326.269318,272.904083 326.323914,274.739532 326.347107,276.572418 
	C326.365021,277.991455 326.644226,279.287292 328.356323,279.531647 
	C329.740173,279.729126 330.890289,279.508331 331.786743,278.143616 
	C333.183136,276.017670 334.112366,273.753967 334.619781,270.514984 
M193.175201,256.656616 
	C196.286163,256.656616 199.397125,256.656616 203.266342,256.656616 
	C193.285126,249.981339 185.173141,249.971832 179.374298,256.197723 
	C179.899857,256.311859 180.361282,256.491913 180.825821,256.500305 
	C184.640305,256.569611 188.455399,256.606995 193.175201,256.656616 
M322.303528,278.303436 
	C322.404572,275.176361 322.533783,272.049805 322.593414,268.921936 
	C322.618866,267.588318 321.946533,266.728882 320.546173,266.608154 
	C319.069794,266.480865 318.401489,267.287720 318.389740,268.663330 
	C318.365723,271.471649 318.265076,274.288971 318.447601,277.086182 
	C318.586578,279.216095 319.804321,280.009155 322.303528,278.303436 
M110.406830,326.229919 
	C112.105522,324.204163 112.588127,322.143188 109.386932,321.499512 
	C103.567749,320.329315 100.809402,323.466309 102.163681,329.647675 
	C103.465179,325.349182 107.032387,327.125275 110.406830,326.229919 
M301.626007,251.194611 
	C298.842316,248.938843 296.999146,251.441757 293.590149,252.535751 
	C297.320709,253.286438 299.898407,255.233032 301.626007,251.194611 
z"/>
<path fill="#000000" opacity="1.000000" stroke="none" 
	d="
M192.600937,194.596634 
	C194.760468,194.148911 196.519333,193.731155 198.577301,193.242371 
	C196.506592,191.320328 193.001923,191.513672 192.033279,188.515884 
	C193.044968,186.244827 194.619034,186.768341 196.252716,187.424988 
	C198.721237,188.417206 201.235001,189.303711 203.669952,190.371033 
	C207.656830,192.118637 210.849960,192.428833 214.138107,188.342682 
	C219.047821,182.241409 228.355408,182.005035 234.174973,187.220184 
	C237.977905,185.056961 241.838821,182.869186 245.690536,180.665268 
	C247.066086,179.878174 248.634766,179.169617 249.634277,180.843170 
	C250.770538,182.745636 248.816635,183.507446 247.654160,184.202759 
	C244.094009,186.332062 240.419785,188.272034 237.324265,191.093994 
	C238.623276,196.851364 235.797562,200.819229 228.748215,201.095276 
	C223.631973,201.295578 223.186295,203.535919 223.295990,207.577393 
	C223.557709,217.219681 225.857391,219.613876 235.426544,219.668182 
	C239.069321,219.688858 242.699127,219.462234 246.329193,220.457672 
	C249.654831,221.369614 252.487457,220.471237 254.242676,217.029800 
	C255.012421,215.520554 255.421585,213.417938 257.691223,213.128876 
	C260.255981,216.993484 256.734009,224.269928 251.942841,224.251633 
	C243.990204,224.221283 236.018539,223.801575 228.098770,223.070541 
	C224.770874,222.763382 222.444595,219.841492 219.637970,217.658966 
	C211.121872,222.469681 201.427216,223.164993 192.097412,225.162430 
	C189.678726,225.680252 186.137146,226.332626 185.163925,223.044205 
	C184.329987,220.226440 183.370911,216.698975 186.475479,214.163895 
	C187.070663,214.517410 187.587875,214.680069 187.588928,214.845993 
	C187.638641,222.666092 191.855591,220.916626 197.238968,220.065231 
	C202.694321,219.202469 207.931244,217.944260 213.048492,216.140289 
	C219.215332,213.966309 221.308273,209.564148 219.547058,203.489349 
	C219.372925,202.888748 219.035751,201.945511 218.628189,201.860367 
	C211.250763,200.319092 204.608337,195.025894 196.351990,197.773224 
	C193.694824,198.657410 190.587418,199.369553 188.142258,196.875427 
	C188.718765,194.334473 190.627686,194.814102 192.600937,194.596634 
z"/>
<path fill="#000000" opacity="1.000000" stroke="none" 
	d="
M311.508179,182.867157 
	C301.791992,186.996475 294.398865,182.598755 293.732544,172.705231 
	C293.628052,171.153976 294.003448,169.773239 294.884430,168.474731 
	C297.766205,164.227142 307.265717,160.599670 312.308563,161.852554 
	C314.381195,162.367493 316.164307,163.559891 316.750580,165.504929 
	C317.893616,169.297058 318.922363,173.219055 318.206696,177.235336 
	C317.599182,180.644882 315.040009,182.087296 311.508179,182.867157 
z"/>
<path fill="#000000" opacity="1.000000" stroke="none" 
	d="
M158.299744,179.542786 
	C156.120422,184.812027 147.478668,188.074905 142.641205,185.889481 
	C139.300034,184.380081 136.377625,174.233566 138.236191,170.577362 
	C138.864838,169.340683 139.841522,168.435638 141.134613,167.982254 
	C142.537720,167.490295 143.983459,166.823593 145.425354,166.785034 
	C158.589920,166.432938 158.577957,165.499115 158.299744,179.542786 
z"/>
<path fill="#000000" opacity="1.000000" stroke="none" 
	d="
M248.664642,190.277802 
	C252.154266,189.797470 255.407471,188.487854 258.109283,191.555313 
	C253.596756,194.525848 241.894348,195.615570 239.129761,193.278839 
	C241.749207,190.790771 245.172958,191.114532 248.664642,190.277802 
z"/>
<path fill="#000000" opacity="1.000000" stroke="none" 
	d="
M227.885620,286.818909 
	C242.059708,284.763123 255.928421,286.638123 269.650513,284.895203 
	C274.409332,284.290771 279.237061,285.053650 284.037781,285.636261 
	C286.544098,285.940399 287.184387,286.915375 287.204559,289.011322 
	C287.367493,305.944611 290.482971,322.761139 289.213867,339.749115 
	C289.085571,341.466492 289.777344,343.522217 287.534332,344.547394 
	C285.229645,343.596436 285.701385,341.516663 285.800049,339.822510 
	C286.711731,324.166840 284.572723,308.652283 283.795166,293.075500 
	C283.677856,290.725433 282.956482,289.529480 280.535217,288.941772 
	C275.080902,287.617828 269.569977,287.963867 264.165985,288.526642 
	C260.350616,288.924011 256.566467,289.104462 252.751511,289.207520 
	C234.642929,289.696808 216.543503,290.649292 198.417404,290.214752 
	C194.811737,290.128296 194.811005,290.159058 191.846741,286.819031 
	C204.211411,286.819031 215.806152,286.819031 227.885620,286.818909 
z"/>
<path fill="#000000" opacity="1.000000" stroke="none" 
	d="
M194.219955,314.000244 
	C194.218918,322.999298 194.392410,331.503662 194.140305,339.995331 
	C194.015991,344.182404 195.100952,345.929688 199.683075,345.885132 
	C220.845566,345.679230 242.011917,345.889557 263.175140,345.726685 
	C268.639496,345.684631 274.073059,344.425354 279.585785,344.799316 
	C281.331024,344.917725 283.285492,344.487305 284.363007,346.436981 
	C283.447113,348.709778 281.552551,348.086945 279.998260,348.195557 
	C259.553741,349.624298 239.076599,349.191620 218.607880,349.228333 
	C210.942047,349.242096 203.276169,349.216125 195.610306,349.221100 
	C192.557648,349.223083 190.492538,348.379120 190.530029,344.693878 
	C190.687637,329.199677 190.691330,313.703949 190.829498,298.209473 
	C190.845978,296.360779 190.081635,294.123688 193.136429,292.484833 
	C195.326950,299.587280 193.684204,306.637878 194.219955,314.000244 
z"/>
<path fill="#000000" opacity="1.000000" stroke="none" 
	d="
M182.419418,327.626465 
	C183.965256,333.998260 183.017761,339.999115 183.114578,345.959839 
	C183.145905,347.888977 182.094467,349.053864 180.054718,349.143524 
	C177.754471,349.244568 176.387573,348.384583 175.810883,345.945801 
	C174.451157,340.195587 174.468536,334.372803 175.020859,328.601654 
	C175.320984,325.465637 175.986893,322.355316 175.614075,319.206024 
	C175.295013,316.510986 176.936523,315.496002 179.007797,315.197540 
	C181.441422,314.846893 182.093307,316.675995 182.167618,318.689148 
	C182.271820,321.513428 182.291016,324.340851 182.419418,327.626465 
M179.707397,335.750977 
	C179.474121,333.851532 180.256790,331.734558 178.609528,329.585724 
	C177.731628,334.725128 179.197220,339.100433 179.719788,343.562836 
	C179.719788,341.246429 179.719788,338.930054 179.707397,335.750977 
z"/>
<path fill="#000000" opacity="1.000000" stroke="none" 
	d="
M263.698364,335.035217 
	C252.521347,333.555847 241.729126,333.927856 230.946777,334.761963 
	C223.253311,335.357147 215.593613,335.668640 207.828262,334.601257 
	C208.192886,331.451019 210.152451,331.811554 211.664413,331.838684 
	C227.481964,332.122345 243.247681,330.070068 259.074097,330.810944 
	C261.071259,330.904449 263.157104,330.674683 264.893036,331.856476 
	C267.293427,333.490662 266.989838,334.651917 263.698364,335.035217 
z"/>
<path fill="#000000" opacity="1.000000" stroke="none" 
	d="
M261.746521,302.799805 
	C265.206207,302.789978 268.105164,303.066254 271.733093,306.205017 
	C260.897339,306.205017 251.429672,306.430054 241.977692,306.141449 
	C232.614670,305.855560 223.187180,308.856171 213.847290,305.498199 
	C229.582230,302.927490 245.417862,302.646942 261.746521,302.799805 
z"/>
<path fill="#000000" opacity="1.000000" stroke="none" 
	d="
M251.928070,318.821472 
	C257.014648,319.878876 261.899048,316.552002 266.404083,319.984680 
	C248.912674,323.893951 231.193008,321.128448 213.158783,322.570343 
	C213.821655,318.464203 216.356003,318.868134 218.524368,318.860138 
	C229.496002,318.819672 240.467819,318.829895 251.928070,318.821472 
z"/>
<path fill="#000000" opacity="1.000000" stroke="none" 
	d="
M180.080719,292.286072 
	C176.756653,291.913300 175.661774,290.087036 176.152039,287.424469 
	C176.549500,285.265808 178.083496,283.964172 180.349228,283.971039 
	C182.357422,283.977142 183.916382,284.919189 184.191101,287.054688 
	C184.548111,289.829956 183.797318,291.997070 180.080719,292.286072 
z"/>
<path fill="#000000" opacity="1.000000" stroke="none" 
	d="
M179.418686,309.060913 
	C176.565613,307.124329 176.289246,304.896820 178.100601,302.571350 
	C179.479324,300.801331 181.420532,300.527863 183.414093,301.563660 
	C185.621185,302.710388 185.576508,304.769958 185.024338,306.710052 
	C184.275986,309.339386 182.063080,309.416626 179.418686,309.060913 
z"/>
<path fill="#000000" opacity="1.000000" stroke="none" 
	d="
M276.497375,383.846863 
	C271.785706,387.673157 266.040375,386.709442 260.876343,388.070709 
	C260.078186,388.281097 259.174713,387.791870 259.095062,386.805176 
	C259.047363,386.214600 259.239410,385.475830 259.591888,385.003967 
	C261.170105,382.891113 274.166290,381.769440 276.497375,383.846863 
z"/>
<path fill="#000000" opacity="1.000000" stroke="none" 
	d="
M277.391785,392.578705 
	C272.770966,394.334808 267.911438,393.978699 263.958405,396.751495 
	C263.258453,397.242462 262.372406,397.261139 261.642303,396.714996 
	C260.880615,396.145172 260.876495,395.362610 261.174164,394.508118 
	C262.571075,390.498199 274.816376,388.144104 277.776581,391.349823 
	C277.917816,391.502777 277.723236,391.965851 277.391785,392.578705 
z"/>
<path fill="#000000" opacity="1.000000" stroke="none" 
	d="
M270.576843,377.273560 
	C267.137238,377.167999 264.011780,377.916779 261.182404,376.467194 
	C261.258179,373.559570 263.121918,373.783966 264.689209,373.675018 
	C266.491211,373.549835 268.303467,373.568787 270.104401,373.433594 
	C271.761566,373.309174 274.079865,371.695892 274.703400,374.260864 
	C275.290131,376.674164 272.568420,376.581085 270.576843,377.273560 
z"/>
</svg>